<svg xmlns="http://www.w3.org/2000/svg" xmlns:xlink="http://www.w3.org/1999/xlink" viewBox="0 0 213.59 81.78"><defs><style>.cls-1{fill:none;}.cls-2{fill:#7abd42;}.cls-3{fill:#008352;}.cls-4{fill:#ffc023;}.cls-5{clip-path:url(#clip-path);}.cls-6{clip-path:url(#clip-path-2);}.cls-7{clip-path:url(#clip-path-3);}.cls-8{clip-path:url(#clip-path-4);}.cls-9{clip-path:url(#clip-path-5);}</style><clipPath id="clip-path"><path class="cls-1" d="M41,17.66,44.6,28H37.42Zm-1.2-1.39L33.24,34.43h1.9l1.74-4.89h8.29l1.74,4.89h1.9L42.23,16.27Z"></path></clipPath><clipPath id="clip-path-2"><path class="cls-1" d="M63.57,27.93c0-4.48,2.18-5.92,4.82-5.92a9.8,9.8,0,0,1,2.71.43v9.9a6.11,6.11,0,0,1-3.2.92c-3.13,0-4.33-1.93-4.33-5.33m-1.82-.16c0,4.49,1.69,7,5.71,7a7.12,7.12,0,0,0,3.89-1.15A1.67,1.67,0,0,0,73,34.7a2.56,2.56,0,0,0,1.12-.26v-1.1a2,2,0,0,1-.55.08c-.73,0-.73-.62-.73-1.3V21.3a15,15,0,0,0-4.48-.73c-3.51,0-6.64,1.63-6.64,7.2"></path></clipPath><clipPath id="clip-path-3"><path class="cls-1" d="M104.06,27.93c0-4.48,2.17-5.92,4.81-5.92a9.81,9.81,0,0,1,2.72.43v9.9a6.14,6.14,0,0,1-3.21.92c-3.12,0-4.32-1.93-4.32-5.33m-1.82-.16c0,4.49,1.68,7,5.71,7a7.08,7.08,0,0,0,3.88-1.15,1.68,1.68,0,0,0,1.69,1.09,2.64,2.64,0,0,0,1.1-.25V33.34a2,2,0,0,1-.53.08c-.73,0-.73-.62-.73-1.3V21.3a15,15,0,0,0-4.49-.73c-3.51,0-6.63,1.63-6.63,7.2"></path></clipPath><clipPath id="clip-path-4"><path class="cls-1" d="M30.58,52.54c.19-4,2.13-6.69,5.83-6.69a2.42,2.42,0,0,1,2.46,2.32c0,3.13-3.22,4.7-6.11,4.7a7.22,7.22,0,0,1-2.18-.33m-6.74,1.7c0,6.4,3.42,11.86,11.86,11.86a27.18,27.18,0,0,0,9.17-1.4l-1-4.68a18.71,18.71,0,0,1-5.63.91c-3.65,0-7.16-1.14-7.26-4.69a13.47,13.47,0,0,0,3.42.42c4.83,0,11.09-2.13,11.09-8.58,0-4.79-3.7-7.06-8.68-7.06-9.48,0-13,6.49-13,13.22"></path></clipPath><clipPath id="clip-path-5"><path class="cls-1" d="M55.13,54.29c0-4.08,1-8.39,5.74-8.39a5.48,5.48,0,0,1,2.8.62l0,13.65a6.33,6.33,0,0,1-3.5,1c-3.61,0-5.08-3.36-5.08-6.92m-6.78-.43c0,6.45,2.66,12.33,10,12.33a7.7,7.7,0,0,0,5.74-2.42c.71,1.71,2.56,2.47,4.74,2.47a12.18,12.18,0,0,0,4.71-1V60.75a3.34,3.34,0,0,1-1.67.46c-.86,0-1.57-.38-1.57-1.32V42.77a23.06,23.06,0,0,0-9-1.9c-9.87,0-12.9,6.5-12.95,13"></path></clipPath></defs><g id="Capa_2" data-name="Capa 2"><g id="Capa_1-2" data-name="Capa 1"><path class="cls-2" d="M213.59,47.94c0-7.95-6.26-16.3-14.31-16.3-9.27,0-15.07,7-15.59,15.08-.63,9.94,4.84,15.22-1.29,25.63a18.9,18.9,0,0,1-14.52,8.9c27.18,4,45.71-16,45.71-33.31"></path><path class="cls-3" d="M161.89,3.71c-6.89,4-11,13.57-7,20.54,4.64,8,13.59,9.57,20.86,6,8.92-4.42,10.76-11.8,22.84-11.7a18.91,18.91,0,0,1,15,8.13C203.51,1.08,176.88-4.94,161.89,3.71"></path><path class="cls-4" d="M149.44,70.6c6.88,4,17.24,2.74,21.27-4.24,4.64-8,1.49-16.55-5.26-21-8.29-5.52-15.61-3.42-21.56-13.93a18.92,18.92,0,0,1-.44-17c-17.1,21.51-9,47.59,6,56.24"></path><path class="cls-3" d="M36.88,29.54h8.29l1.74,4.89h1.9L42.23,16.27H39.81L33.24,34.43h1.9ZM41,17.66,44.6,28H37.42Z"></path><g class="cls-5"><polygon class="cls-3" points="41.01 17.66 37.42 27.96 44.6 27.96 41.01 17.66"></polygon></g><polygon class="cls-3" points="52.99 16.27 51.23 16.27 51.23 34.44 52.99 34.41 52.99 16.27"></polygon><rect class="cls-3" x="57.19" y="16.27" width="1.71" height="2.47"></rect><rect class="cls-3" x="57.19" y="20.78" width="1.71" height="13.65"></rect><path class="cls-3" d="M67.46,34.76a7.12,7.12,0,0,0,3.89-1.15A1.66,1.66,0,0,0,73,34.7a2.56,2.56,0,0,0,1.12-.26v-1.1a2,2,0,0,1-.54.08c-.74,0-.74-.62-.74-1.3V21.3a15,15,0,0,0-4.48-.73c-3.51,0-6.64,1.63-6.64,7.2,0,4.49,1.69,7,5.71,7M68.39,22a9.8,9.8,0,0,1,2.71.43v9.9a6.11,6.11,0,0,1-3.2.92c-3.13,0-4.33-1.93-4.33-5.33,0-4.48,2.18-5.92,4.82-5.92"></path><g class="cls-6"><path class="cls-3" d="M67.9,33.26a6.08,6.08,0,0,0,3.2-.92v-9.9A9.8,9.8,0,0,0,68.39,22c-2.64,0-4.82,1.44-4.82,5.92,0,3.4,1.2,5.33,4.33,5.33"></path></g><path class="cls-3" d="M78.5,22.9A8.31,8.31,0,0,1,82.38,22c2.1,0,3.43.52,3.43,3.37v9.08h1.68V24.92c0-3.62-1.95-4.49-4.59-4.49a17.93,17.93,0,0,0-6.12,1.36V34.43H78.5Z"></path><polygon class="cls-3" points="90.78 34.43 100.15 34.43 100.15 32.93 92.49 32.93 100.27 22.25 100.1 20.78 91.3 20.78 91.27 22.25 98.36 22.25 90.56 33.07 90.78 34.43"></polygon><path class="cls-3" d="M114.09,33.42c-.73,0-.73-.62-.73-1.3V21.3a15,15,0,0,0-4.49-.73c-3.5,0-6.63,1.63-6.63,7.2,0,4.49,1.68,7,5.71,7a7.08,7.08,0,0,0,3.88-1.15,1.68,1.68,0,0,0,1.69,1.09,2.64,2.64,0,0,0,1.1-.25V33.34a2,2,0,0,1-.53.08m-2.5-1.08a6.14,6.14,0,0,1-3.21.92c-3.12,0-4.32-1.93-4.32-5.33,0-4.48,2.17-5.92,4.81-5.92a9.81,9.81,0,0,1,2.72.43Z"></path><g class="cls-7"><path class="cls-3" d="M104.06,27.93c0,3.4,1.2,5.33,4.32,5.33a6.14,6.14,0,0,0,3.21-.92v-9.9a9.81,9.81,0,0,0-2.72-.43c-2.64,0-4.81,1.44-4.81,5.92"></path></g><polygon class="cls-3" points="25.78 34 0 34 0 39.45 9.01 39.45 9.01 65.67 16.02 65.67 16.02 39.45 25.78 39.45 25.78 34"></polygon><path class="cls-3" d="M38.26,60.93c-3.65,0-7.16-1.14-7.26-4.69a13.47,13.47,0,0,0,3.42.42c4.83,0,11.09-2.13,11.09-8.58,0-4.79-3.7-7.06-8.67-7.06-9.49,0-13,6.49-13,13.22,0,6.4,3.42,11.86,11.86,11.86a27.18,27.18,0,0,0,9.17-1.4l-1-4.68a18.71,18.71,0,0,1-5.63.91M36.41,45.85a2.42,2.42,0,0,1,2.46,2.32c0,3.13-3.22,4.7-6.11,4.7a7.55,7.55,0,0,1-2.18-.33c.19-4,2.13-6.69,5.83-6.69"></path><g class="cls-8"><path class="cls-3" d="M38.87,48.17a2.42,2.42,0,0,0-2.46-2.32c-3.7,0-5.64,2.66-5.83,6.69a7.55,7.55,0,0,0,2.18.33c2.89,0,6.11-1.57,6.11-4.7"></path></g><path class="cls-3" d="M71.92,61.21c-.86,0-1.57-.38-1.57-1.32V42.77a23.06,23.06,0,0,0-9-1.9c-9.86,0-12.9,6.5-12.95,13S51,66.19,58.4,66.19a7.68,7.68,0,0,0,5.74-2.42c.71,1.71,2.56,2.47,4.74,2.47a12.18,12.18,0,0,0,4.71-1V60.76a3.44,3.44,0,0,1-1.67.45m-11.71,0c-3.61,0-5.08-3.36-5.08-6.92,0-4.08,1-8.39,5.74-8.39a5.48,5.48,0,0,1,2.8.62l0,13.65a6.35,6.35,0,0,1-3.5,1"></path><g class="cls-9"><path class="cls-3" d="M60.87,45.9c-4.69,0-5.74,4.31-5.74,8.39,0,3.56,1.47,6.92,5.08,6.92a6.35,6.35,0,0,0,3.5-1l0-13.65a5.48,5.48,0,0,0-2.8-.62"></path></g><path class="cls-3" d="M104.68,40.83a22.43,22.43,0,0,0-8.87,1.89c-1.8-1.51-4.32-1.89-7-1.89a31,31,0,0,0-12.19,3V65.67h6.59V46.94a9.54,9.54,0,0,1,4.46-1c2.23,0,4.08.76,4.08,4.12V65.67h6.49V49.31A16.15,16.15,0,0,0,98.08,47a11,11,0,0,1,4.79-1.14c2.28,0,3.89,1,3.89,4.12V65.67h6.59V49.31c0-6.49-3.89-8.48-8.67-8.48"></path></g></g></svg>