<svg version="1.1" id="Layer_1" xmlns="http://www.w3.org/2000/svg" xmlns:xlink="http://www.w3.org/1999/xlink" x="0px" y="0px" viewBox="0 0 175.9 92.4" style="enable-background:new 0 0 175.9 92.4;" xml:space="preserve">
 <style type="text/css">
  .st0{fill:#0B5A97;}
	.st1{fill:#FF690A;}
 </style>
 <g>
  <path class="st0" d="M130.4,62.5C123.8,79.7,107.2,92,87.8,92c-19.5,0-36.1-12.2-42.6-29.4l5,0c6.3,14.6,20.7,24.8,37.6,24.8
		c16.8,0,31.3-10.3,37.6-24.8L130.4,62.5L130.4,62.5z">
  </path>
  <path class="st0" d="M130.4,62.5l-0.4-0.2c-6.5,17-23,29.1-42.2,29.1c-19.3,0-35.7-12.1-42.2-29.1l-0.4,0.2V63l5,0v-0.5l-0.4,0.2
		c6.3,14.7,21,25.1,38,25.1c17,0,31.6-10.4,38-25.1l-0.4-0.2V63h5.1L130.4,62.5l-0.4-0.2L130.4,62.5l0-0.5H125l-0.1,0.3
		c-6.2,14.4-20.5,24.5-37.1,24.5c-16.7,0-31-10.1-37.2-24.5l-0.1-0.3l-5.9,0l0.2,0.6c6.6,17.4,23.4,29.7,43,29.7
		c19.6,0,36.4-12.4,43-29.7l0.2-0.6h-0.7L130.4,62.5L130.4,62.5z">
  </path>
  <path class="st0" d="M125.7,29.9c-1.2-2.8-2.8-5.5-4.6-8c-0.7,0.3-1.6,0.4-2.5,0.4c-3.9,0-7-3.1-7-7c0-0.9,0.2-1.7,0.5-2.5
		c-6.7-4.9-15-7.8-24-7.8c-16.9,0-31.4,10.2-37.6,24.8h-4.9C52.1,12.8,68.7,0.5,88.1,0.5c10.1,0,19.4,3.3,26.9,8.8
		c1.1-0.7,2.3-1.1,3.7-1.1c3.9,0,7.1,3.2,7.1,7.1c0,1.3-0.4,2.6-1,3.6c2.4,3.3,4.5,7.1,5.9,11L125.7,29.9L125.7,29.9z">
  </path>
  <path class="st0" d="M125.7,29.9l0.4-0.2c-1.2-2.9-2.8-5.6-4.6-8.1l-0.2-0.3l-0.3,0.1c-0.7,0.3-1.5,0.4-2.3,0.4
		c-1.8,0-3.5-0.7-4.6-1.9c-1.2-1.2-1.9-2.8-1.9-4.6c0-0.8,0.1-1.6,0.4-2.3l0.1-0.3l-0.3-0.2c-6.8-5-15.2-7.9-24.3-7.9
		C71,4.6,56.3,15,50,29.7l0.4,0.2v-0.5h-4.9v0.5l0.4,0.2c6.5-17,22.9-29.2,42.1-29.2c10,0,19.2,3.3,26.6,8.8l0.3,0.2l0.3-0.2
		c1-0.6,2.2-1,3.5-1c1.8,0,3.5,0.7,4.7,1.9c1.2,1.2,1.9,2.8,1.9,4.7c0,1.3-0.3,2.4-0.9,3.4l-0.2,0.3l0.2,0.2c2.4,3.3,4.4,7,5.9,10.8
		l0.4-0.2l0-0.5l-5,0L125.7,29.9l0.4-0.2L125.7,29.9l0,0.5l5.7,0l-0.2-0.6c-1.5-3.9-3.5-7.7-6-11.1l-0.4,0.3l0.4,0.2
		c0.7-1.1,1.1-2.5,1.1-3.9c0-4.2-3.4-7.5-7.5-7.5c-1.5,0-2.8,0.4-3.9,1.1l0.2,0.4l0.3-0.4C107.7,3.3,98.2,0,88.1,0
		c-19.6,0-36.4,12.4-43,29.8l-0.2,0.6h5.9l0.1-0.3C57,15.6,71.4,5.5,88.1,5.5c8.9,0,17.1,2.9,23.7,7.7l0.3-0.4l-0.4-0.2
		c-0.3,0.8-0.5,1.7-0.5,2.6c0,4.1,3.3,7.5,7.5,7.5c0.9,0,1.8-0.2,2.6-0.5l-0.2-0.4l-0.4,0.3c1.8,2.4,3.3,5.1,4.5,7.9l0.1,0.3l0.3,0
		L125.7,29.9L125.7,29.9z">
  </path>
  <path class="st1" d="M114.8,15.3c0-2.1,1.7-3.9,3.9-3.9c2.1,0,3.9,1.7,3.9,3.9c0,2.1-1.7,3.9-3.9,3.9
		C116.6,19.1,114.8,17.4,114.8,15.3">
  </path>
  <path class="st1" d="M114.8,15.3L114.8,15.3c0.1-1,0.5-2,1.2-2.7c0.7-0.7,1.6-1.1,2.7-1.1c1,0,2,0.4,2.7,1.1
		c0.7,0.7,1.1,1.6,1.1,2.7c0,1-0.4,2-1.1,2.7c-0.7,0.7-1.6,1.1-2.7,1.1c-1,0-2-0.4-2.7-1.1C115.3,17.3,114.9,16.3,114.8,15.3
		L114.8,15.3c-0.1,2.2,1.7,3.9,3.9,3.9c2.2,0,3.9-1.8,3.9-3.9c0-2.2-1.8-3.9-3.9-3.9C116.5,11.3,114.8,13.1,114.8,15.3L114.8,15.3
		L114.8,15.3z">
  </path>
  <path class="st0" d="M3.4,38.8c1-1,2.1-1.7,3.3-2.2c1.3-0.5,2.6-0.8,3.8-0.8c1.3,0,2.6,0.3,3.8,0.8c1.3,0.5,2.4,1.2,3.4,2.2
		l1.4,1.4l-2.8,2.9l-1.4-1.4c-0.6-0.6-1.3-1.1-2-1.4c-0.8-0.3-1.5-0.5-2.3-0.5c-0.8,0-1.6,0.1-2.3,0.5c-0.8,0.3-1.4,0.8-2,1.4
		c-0.6,0.6-1.1,1.2-1.4,2c-0.3,0.8-0.5,1.5-0.5,2.3c0,0.8,0.2,1.6,0.5,2.3c0.3,0.8,0.8,1.4,1.4,2c1.2,1.2,2.7,1.8,4.3,1.8
		c0.8,0,1.6-0.2,2.4-0.5c0.8-0.3,1.4-0.8,2-1.4l1.4-1.4l2.8,2.9l-1.4,1.4c-1,1-2.1,1.7-3.4,2.3c-1.2,0.5-2.5,0.7-3.8,0.7
		c-1.3,0-2.6-0.2-3.8-0.7c-1.2-0.5-2.4-1.3-3.3-2.3c-1-1-1.7-2.1-2.2-3.4c-0.5-1.2-0.7-2.5-0.7-3.8c0-1.3,0.2-2.6,0.7-3.8
		C1.7,40.9,2.4,39.8,3.4,38.8">
  </path>
  <path class="st0" d="M3.4,38.8l0.3,0.3c1-1,2-1.7,3.2-2.1l0,0c1.2-0.5,2.4-0.7,3.7-0.7c1.2,0,2.4,0.2,3.6,0.7l0,0l0,0
		c1.2,0.5,2.3,1.2,3.2,2.1l1.1,1.1l-2.2,2.2l-1.1-1.1l-0.3,0.3l0.3-0.3c-0.6-0.6-1.4-1.1-2.2-1.5c-0.8-0.3-1.6-0.5-2.5-0.5
		c-0.8,0-1.7,0.2-2.5,0.5c-0.8,0.3-1.5,0.8-2.2,1.5l0.3,0.3l-0.3-0.3c-0.6,0.6-1.1,1.3-1.5,2.2C4.1,44.3,4,45.1,4,46
		c0,0.8,0.2,1.7,0.5,2.5c0.3,0.8,0.8,1.5,1.5,2.2c1.3,1.3,2.9,2,4.7,1.9c0.9,0,1.7-0.2,2.5-0.5c0.8-0.3,1.5-0.8,2.2-1.5l-0.3-0.3
		l0.3,0.3l1.1-1.1l2.2,2.2l-1.1,1.1c-1,1-2,1.7-3.2,2.2l0.2,0.4L14.2,55c-1.2,0.5-2.4,0.7-3.6,0.7S8.1,55.5,6.9,55l-0.2,0.4L6.9,55
		c-1.2-0.5-2.2-1.2-3.2-2.2c-1-1-1.7-2-2.1-3.2c-0.5-1.2-0.7-2.4-0.7-3.6c0-1.3,0.2-2.5,0.7-3.7c0.5-1.2,1.2-2.2,2.1-3.2L3.4,38.8
		l-0.3-0.3c-1,1-1.8,2.2-2.3,3.5C0.3,43.3,0,44.6,0,46c0,1.4,0.3,2.7,0.8,4c0.5,1.3,1.3,2.5,2.3,3.5c1,1,2.2,1.8,3.5,2.4l0,0l0,0
		c1.3,0.5,2.7,0.8,4,0.8c1.4,0,2.7-0.3,4-0.8l0,0c1.3-0.5,2.5-1.3,3.5-2.4l1.7-1.7l-3.5-3.5L14.6,50l0,0c-0.5,0.6-1.1,1-1.8,1.2
		c-0.7,0.3-1.4,0.4-2.2,0.4c-1.6,0-2.9-0.5-4-1.7c-0.6-0.6-1-1.2-1.3-1.9C5,47.4,4.9,46.7,4.9,46c0-0.7,0.1-1.4,0.4-2.1
		C5.6,43.1,6,42.5,6.6,42l0,0l0,0c0.6-0.6,1.2-1,1.9-1.3c0.7-0.3,1.4-0.4,2.1-0.4c0.7,0,1.4,0.1,2.1,0.4c0.7,0.3,1.3,0.7,1.9,1.3
		l0,0l1.8,1.7l3.5-3.5l-1.7-1.7c-1-1-2.2-1.8-3.6-2.3l-0.2,0.4l0.2-0.4c-1.3-0.5-2.6-0.8-4-0.8c-1.4,0-2.7,0.3-4,0.8l0.2,0.4
		l-0.2-0.4c-1.3,0.5-2.5,1.3-3.5,2.3L3.4,38.8L3.4,38.8z">
  </path>
  <path class="st0" d="M27.4,41.6c-1.2,1.2-1.8,2.7-1.8,4.3c0,0.9,0.2,1.8,0.6,2.7c0.4-0.4,0.9-0.9,1.6-1.6c0.8-0.8,1.5-1.5,2.4-2.4
		c0.8-0.8,1.6-1.6,2.4-2.4c0.8-0.8,1.4-1.3,1.8-1.8c-1.1-0.6-2.4-0.8-3.7-0.6C29.5,40.1,28.4,40.6,27.4,41.6 M37.5,48.9l2.9,2.9
		L39,53.2c-1,1-2.1,1.7-3.3,2.2c-1.2,0.5-2.5,0.8-3.9,0.8c-1.4,0-2.7-0.3-3.9-0.8c-1.2-0.5-2.3-1.3-3.3-2.2c-1-1-1.7-2.1-2.2-3.4
		c-0.5-1.3-0.7-2.6-0.7-3.9c0-1.3,0.2-2.6,0.7-3.8c0.5-1.2,1.2-2.4,2.2-3.3c1-1,2.1-1.7,3.4-2.2c1.3-0.5,2.6-0.8,3.8-0.8
		c1.3,0,2.6,0.3,3.8,0.8c1.3,0.5,2.4,1.2,3.4,2.2l1.4,1.4L29.1,51.5c1.1,0.6,2.4,0.8,3.6,0.6c1.3-0.2,2.4-0.8,3.4-1.8L37.5,48.9
		L37.5,48.9z">
  </path>
  <path class="st0" d="M27.4,41.6l-0.3-0.3c-1.3,1.3-2,2.9-1.9,4.7c0,1,0.2,2,0.7,2.9l0.3,0.6l0.5-0.5c0.4-0.4,0.9-0.9,1.6-1.6
		c0.8-0.8,1.5-1.5,2.4-2.4c0.8-0.8,1.6-1.6,2.4-2.4l-0.3-0.3l0.3,0.3c0.8-0.8,1.4-1.3,1.8-1.8l0.5-0.5l-0.6-0.3
		c-0.9-0.5-1.9-0.7-2.9-0.7c-0.3,0-0.7,0-1,0.1c-1.4,0.2-2.6,0.8-3.6,1.9L27.4,41.6l0.3,0.3c0.9-0.9,1.9-1.4,3.1-1.6
		c0.3,0,0.6-0.1,0.9-0.1c0.9,0,1.7,0.2,2.5,0.6l0.2-0.4l-0.3-0.3c-0.4,0.4-1,1-1.8,1.8l0,0l0,0c-0.8,0.8-1.6,1.6-2.4,2.4
		c-0.8,0.8-1.6,1.6-2.4,2.4c-0.7,0.7-1.3,1.3-1.6,1.6l0.3,0.3l0.4-0.2c-0.4-0.8-0.6-1.6-0.6-2.5c0-1.6,0.5-2.9,1.7-4L27.4,41.6
		L27.4,41.6z M37.5,48.9l-0.3,0.3l2.5,2.5l-1.1,1.1c-0.9,0.9-2,1.6-3.2,2.1c-1.2,0.5-2.4,0.7-3.7,0.7c-1.3,0-2.5-0.2-3.7-0.7
		c-1.2-0.5-2.2-1.2-3.2-2.1c-1-1-1.7-2-2.1-3.2l0,0c-0.5-1.2-0.7-2.4-0.7-3.7c0-1.2,0.2-2.4,0.7-3.6c0.5-1.2,1.2-2.2,2.1-3.2
		c1-1,2-1.7,3.2-2.1l0,0c1.2-0.5,2.4-0.7,3.7-0.7c1.2,0,2.4,0.2,3.6,0.7l0,0l0,0c1.2,0.5,2.3,1.2,3.2,2.1l1.1,1.1L28.3,51.6l0.6,0.3
		c0.9,0.5,1.9,0.7,2.9,0.7c0.3,0,0.6,0,1-0.1l0,0l0,0c1.4-0.2,2.6-0.9,3.6-1.9l1.4-1.4L37.5,48.9l-0.3,0.3L37.5,48.9l-0.3-0.3
		L35.8,50c-0.9,0.9-1.9,1.4-3.1,1.6l0.1,0.5l-0.1-0.5c-0.3,0-0.6,0.1-0.8,0.1c-0.9,0-1.7-0.2-2.5-0.6l-0.2,0.4l0.3,0.3L41,40.2
		l-1.7-1.7c-1-1-2.2-1.8-3.6-2.3l-0.2,0.4l0.2-0.4c-1.3-0.5-2.6-0.8-4-0.8c-1.4,0-2.7,0.3-4,0.8l0.2,0.4l-0.2-0.4
		c-1.3,0.5-2.5,1.3-3.5,2.3c-1,1-1.8,2.2-2.3,3.5c-0.5,1.3-0.8,2.6-0.8,4c0,1.4,0.3,2.7,0.8,4l0,0l0,0c0.5,1.3,1.3,2.5,2.3,3.5
		c1,1,2.2,1.8,3.5,2.3c1.3,0.5,2.7,0.8,4.1,0.8c1.4,0,2.8-0.3,4.1-0.8c1.3-0.5,2.4-1.3,3.5-2.3l1.7-1.7l-3.5-3.5l-0.3,0.3L37.5,48.9
		L37.5,48.9z">
  </path>
  <path class="st0" d="M42.8,46c0-1.4,0.3-2.7,0.8-3.9c0.5-1.2,1.3-2.3,2.2-3.2c0.9-0.9,2-1.7,3.3-2.2c1.2-0.5,2.6-0.8,3.9-0.8
		c1.4,0,2.7,0.3,3.9,0.8c1.2,0.5,2.3,1.2,3.3,2.2c0.9,0.9,1.7,2,2.2,3.2c0.5,1.2,0.8,2.5,0.8,3.9v10.2h-4V46c0-0.8-0.2-1.6-0.5-2.4
		c-0.3-0.8-0.7-1.4-1.3-1.9c-0.5-0.6-1.2-1-1.9-1.3c-0.8-0.3-1.6-0.5-2.4-0.5c-0.8,0-1.6,0.2-2.4,0.5c-0.7,0.3-1.4,0.7-1.9,1.3
		c-0.5,0.5-1,1.2-1.3,1.9c-0.3,0.7-0.5,1.5-0.5,2.4v10.2h-4L42.8,46L42.8,46z">
  </path>
  <path class="st0" d="M42.8,46h0.5c0-1.4,0.2-2.6,0.7-3.8L43.6,42l0.4,0.2c0.5-1.2,1.2-2.2,2.1-3.1c0.9-0.9,1.9-1.6,3.1-2.1l0,0l0,0
		c1.2-0.5,2.4-0.8,3.8-0.8c1.4,0,2.6,0.3,3.8,0.8l0,0l0,0c1.2,0.5,2.2,1.2,3.1,2.1l0,0l0,0c0.9,0.9,1.6,1.9,2.1,3.1l0,0l0,0
		c0.5,1.1,0.8,2.4,0.8,3.7v9.7h-3.1l0-9.7c0-0.9-0.2-1.8-0.5-2.5l-0.4,0.2l0.4-0.2c-0.3-0.8-0.8-1.5-1.4-2.1l-0.3,0.3l0.3-0.3
		c-0.6-0.6-1.3-1.1-2.1-1.4l-0.2,0.4l0.2-0.4c-0.8-0.4-1.7-0.5-2.6-0.5c-0.9,0-1.8,0.2-2.6,0.5l0.2,0.4l-0.2-0.4
		c-0.8,0.3-1.5,0.8-2.1,1.4c-0.6,0.6-1.1,1.3-1.4,2.1l0,0l0,0c-0.3,0.8-0.5,1.6-0.5,2.5v9.7h-3.1V46h-0.9v10.7h5V46
		c0-0.8,0.1-1.5,0.4-2.2l-0.4-0.2l0.4,0.2c0.3-0.7,0.7-1.3,1.2-1.8c0.5-0.5,1.1-0.9,1.8-1.2l0,0c0.7-0.3,1.4-0.5,2.2-0.5
		c0.8,0,1.5,0.2,2.2,0.5l0,0l0,0c0.7,0.3,1.3,0.7,1.8,1.2l0,0l0,0c0.5,0.5,0.9,1.1,1.2,1.8l0,0l0,0c0.3,0.7,0.5,1.4,0.5,2.2v10.7h5
		V46c0-1.5-0.3-2.9-0.9-4.1L62.4,42l0.4-0.2c-0.5-1.3-1.3-2.4-2.3-3.4l-0.3,0.3l0.3-0.3c-1-1-2.1-1.7-3.4-2.3l-0.2,0.4l0.2-0.4
		c-1.3-0.6-2.7-0.9-4.1-0.9c-1.4,0-2.8,0.3-4.1,0.9l0.2,0.4l-0.2-0.4c-1.3,0.5-2.4,1.3-3.4,2.3c-0.9,0.9-1.7,2.1-2.3,3.4l0,0
		c-0.5,1.3-0.8,2.6-0.8,4.1L42.8,46L42.8,46z">
  </path>
  <path class="st0" d="M68.5,38.8c1-1,2.1-1.7,3.4-2.2c1.3-0.5,2.5-0.8,3.8-0.8c1.3,0,2.6,0.3,3.8,0.8c1.3,0.5,2.4,1.2,3.4,2.2
		l1.4,1.4l-2.8,2.9l-1.4-1.4c-0.6-0.6-1.3-1.1-2-1.4c-0.8-0.3-1.5-0.5-2.3-0.5c-0.8,0-1.6,0.1-2.3,0.5c-0.8,0.3-1.4,0.8-2,1.4
		c-0.6,0.6-1.1,1.2-1.4,2c-0.3,0.8-0.5,1.5-0.5,2.3c0,0.8,0.2,1.6,0.5,2.3c0.3,0.8,0.8,1.4,1.4,2c1.2,1.2,2.7,1.8,4.3,1.8
		c0.8,0,1.6-0.2,2.4-0.5c0.8-0.3,1.4-0.8,2-1.4l1.4-1.4l2.8,2.9l-1.4,1.4c-1,1-2.1,1.7-3.4,2.3c-1.2,0.5-2.5,0.7-3.8,0.7
		c-1.3,0-2.6-0.2-3.8-0.7c-1.2-0.5-2.4-1.3-3.4-2.3c-1-1-1.7-2.1-2.2-3.4c-0.5-1.2-0.7-2.5-0.7-3.8c0-1.3,0.2-2.6,0.7-3.8
		C66.8,40.9,67.5,39.8,68.5,38.8">
  </path>
  <path class="st0" d="M68.5,38.8l0.3,0.3c1-1,2-1.7,3.2-2.1l0,0c1.2-0.5,2.4-0.7,3.7-0.7c1.2,0,2.4,0.2,3.6,0.7l0,0l0,0
		c1.2,0.5,2.3,1.2,3.2,2.1l1.1,1.1l-2.2,2.2l-1.1-1.1l-0.3,0.3l0.3-0.3c-0.6-0.6-1.4-1.1-2.2-1.5c-0.8-0.3-1.6-0.5-2.5-0.5
		c-0.8,0-1.7,0.2-2.5,0.5c-0.8,0.3-1.5,0.8-2.2,1.5l0.3,0.3l-0.3-0.3c-0.6,0.6-1.1,1.3-1.5,2.2c-0.3,0.8-0.5,1.6-0.5,2.5
		s0.2,1.7,0.5,2.5c0.3,0.8,0.8,1.6,1.5,2.2c1.3,1.3,2.9,2,4.7,1.9c0.9,0,1.7-0.2,2.5-0.5c0.8-0.3,1.5-0.8,2.2-1.5l-0.3-0.3l0.3,0.3
		l1.1-1.1l2.2,2.2l-1.1,1.1c-1,1-2,1.7-3.2,2.2l0.2,0.4L79.4,55c-1.2,0.5-2.4,0.7-3.6,0.7c-1.2,0-2.5-0.2-3.7-0.7l-0.2,0.4l0.2-0.4
		c-1.2-0.5-2.2-1.2-3.2-2.2c-1-1-1.7-2-2.1-3.2c-0.5-1.2-0.7-2.4-0.7-3.6c0-1.3,0.2-2.5,0.7-3.7c0.5-1.2,1.2-2.2,2.1-3.2L68.5,38.8
		l-0.3-0.3c-1,1-1.8,2.2-2.3,3.5c-0.5,1.3-0.8,2.6-0.8,4c0,1.4,0.3,2.7,0.8,4c0.5,1.3,1.3,2.5,2.3,3.5c1,1,2.2,1.8,3.5,2.4l0,0l0,0
		c1.3,0.5,2.7,0.8,4,0.8c1.4,0,2.7-0.3,4-0.8l0,0c1.3-0.5,2.5-1.3,3.5-2.4l1.7-1.7l-3.5-3.5L79.8,50l0,0c-0.5,0.6-1.1,1-1.8,1.2
		c-0.7,0.3-1.4,0.4-2.2,0.4c-1.6,0-2.9-0.5-4-1.7c-0.6-0.6-1-1.2-1.3-1.9C70.2,47.4,70,46.7,70,46c0-0.7,0.1-1.4,0.4-2.1
		c0.3-0.7,0.7-1.3,1.2-1.8l0,0l0,0c0.6-0.6,1.2-1,1.9-1.3c0.7-0.3,1.4-0.4,2.1-0.4c0.7,0,1.4,0.1,2.1,0.4c0.7,0.3,1.3,0.7,1.9,1.3
		l1.8,1.7l3.5-3.5l-1.7-1.7c-1-1-2.2-1.8-3.6-2.3l-0.2,0.4l0.2-0.4c-1.3-0.5-2.6-0.8-4-0.8c-1.4,0-2.7,0.3-4,0.8l0.2,0.4l-0.2-0.4
		c-1.3,0.5-2.5,1.3-3.5,2.3L68.5,38.8L68.5,38.8z">
  </path>
  <path class="st0" d="M90.8,46c0,0.8,0.2,1.6,0.5,2.4c0.3,0.8,0.8,1.4,1.3,2c0.6,0.5,1.2,1,2,1.3c0.8,0.3,1.6,0.5,2.4,0.5
		c0.8,0,1.6-0.1,2.4-0.5c0.8-0.3,1.4-0.8,1.9-1.3c0.6-0.6,1-1.2,1.3-2c0.3-0.8,0.5-1.6,0.5-2.4c0-0.8-0.2-1.6-0.5-2.4
		c-0.3-0.8-0.7-1.4-1.3-1.9c-0.5-0.6-1.2-1-1.9-1.3c-0.8-0.3-1.6-0.5-2.4-0.5c-0.8,0-1.6,0.2-2.4,0.5c-0.8,0.3-1.4,0.7-2,1.3
		c-0.5,0.5-1,1.2-1.3,1.9C90.9,44.3,90.8,45.1,90.8,46 M86.8,46c0-1.4,0.3-2.7,0.8-3.9c0.5-1.2,1.3-2.3,2.2-3.2
		c0.9-0.9,2-1.7,3.3-2.2c1.2-0.5,2.5-0.8,3.9-0.8c1.4,0,2.7,0.3,3.9,0.8c1.2,0.5,2.3,1.2,3.3,2.2c0.9,0.9,1.7,2,2.2,3.2
		c0.5,1.2,0.8,2.5,0.8,3.9c0,1.4-0.3,2.7-0.8,3.9c-0.5,1.2-1.2,2.3-2.2,3.3c-0.9,0.9-2,1.7-3.3,2.2c-1.2,0.5-2.5,0.8-3.9,0.8
		c-1.4,0-2.7-0.3-3.9-0.8c-1.2-0.5-2.3-1.3-3.3-2.2c-0.9-0.9-1.6-2-2.2-3.3C87,48.7,86.8,47.3,86.8,46">
  </path>
  <path class="st0" d="M90.8,46h-0.5c0,0.9,0.2,1.8,0.5,2.6l0,0l0,0c0.4,0.8,0.8,1.5,1.4,2.1l0,0l0,0c0.6,0.6,1.3,1,2.1,1.4l0,0l0,0
		c0.8,0.3,1.7,0.5,2.6,0.5c0.9,0,1.8-0.2,2.6-0.5l0,0l0,0c0.8-0.4,1.5-0.8,2.1-1.4c0.6-0.6,1.1-1.3,1.4-2.1l-0.4-0.2l0.4,0.2
		c0.4-0.8,0.5-1.7,0.5-2.6c0-0.9-0.2-1.8-0.5-2.5l-0.4,0.2l0.4-0.2c-0.3-0.8-0.8-1.5-1.4-2.1l-0.3,0.3l0.3-0.3
		c-0.6-0.6-1.3-1.1-2.1-1.4l-0.2,0.4l0.2-0.4c-0.8-0.4-1.7-0.5-2.6-0.5c-0.9,0-1.8,0.2-2.6,0.5l0.2,0.4l-0.2-0.4
		c-0.8,0.3-1.5,0.8-2.1,1.4l0,0c-0.6,0.6-1.1,1.3-1.4,2.1l0,0l0,0c-0.3,0.8-0.5,1.6-0.5,2.5h0.9c0-0.8,0.1-1.5,0.4-2.2l-0.4-0.2
		l0.4,0.2c0.3-0.7,0.7-1.3,1.2-1.8l0,0c0.5-0.5,1.1-0.9,1.8-1.2l0,0l0,0c0.7-0.3,1.4-0.5,2.2-0.5c0.8,0,1.5,0.2,2.2,0.5l0,0l0,0
		c0.7,0.3,1.3,0.7,1.8,1.2l0,0l0,0c0.5,0.5,0.9,1.1,1.2,1.8l0,0l0,0c0.3,0.7,0.5,1.4,0.5,2.2c0,0.8-0.2,1.5-0.5,2.2l0,0l0,0
		c-0.3,0.7-0.7,1.3-1.2,1.8c-0.5,0.5-1.1,0.9-1.8,1.2l0.2,0.4l-0.2-0.4c-0.7,0.3-1.4,0.4-2.2,0.4c-0.8,0-1.5-0.1-2.2-0.4l-0.2,0.4
		l0.2-0.4c-0.7-0.3-1.3-0.7-1.9-1.2l-0.3,0.3l0.3-0.3c-0.5-0.5-0.9-1.2-1.2-1.9l-0.4,0.2l0.4-0.2c-0.3-0.7-0.4-1.4-0.4-2.2L90.8,46
		L90.8,46z M86.8,46h0.5c0-1.4,0.2-2.6,0.7-3.8L87.6,42l0.4,0.2c0.5-1.2,1.2-2.2,2.1-3.1c0.9-0.9,1.9-1.6,3.1-2.1l0,0l0,0
		c1.2-0.5,2.4-0.8,3.8-0.8c1.4,0,2.6,0.3,3.7,0.8l0,0l0,0c1.2,0.5,2.2,1.2,3.1,2.1l0,0l0,0c0.9,0.9,1.6,1.9,2.1,3.1l0,0l0,0
		c0.5,1.1,0.8,2.4,0.8,3.7c0,1.3-0.3,2.6-0.8,3.8l0,0l0,0c-0.5,1.2-1.2,2.2-2.1,3.1c-0.9,0.9-1.9,1.6-3.1,2.1l0.2,0.4l-0.2-0.4
		c-1.1,0.5-2.4,0.7-3.8,0.7c-1.3,0-2.6-0.2-3.8-0.7L93,55.4l0.2-0.4c-1.2-0.5-2.2-1.2-3.1-2.1l-0.3,0.3l0.3-0.3
		c-0.9-0.9-1.6-1.9-2.1-3.1l-0.4,0.2l0.4-0.2c-0.5-1.2-0.7-2.4-0.7-3.8h-0.9c0,1.4,0.3,2.8,0.8,4.1l0,0c0.6,1.3,1.3,2.4,2.3,3.4l0,0
		l0,0c1,1,2.1,1.7,3.4,2.3l0,0l0,0c1.3,0.5,2.7,0.8,4.1,0.8c1.5,0,2.9-0.3,4.1-0.8l0,0c1.3-0.6,2.4-1.3,3.4-2.3c1-1,1.7-2.1,2.3-3.4
		l-0.4-0.2l0.4,0.2c0.6-1.3,0.9-2.7,0.9-4.1c0-1.5-0.3-2.9-0.9-4.1l-0.4,0.2l0.4-0.2c-0.5-1.3-1.3-2.4-2.3-3.4l-0.3,0.3l0.3-0.3
		c-1-1-2.1-1.7-3.4-2.3l-0.2,0.4l0.2-0.4c-1.3-0.6-2.7-0.9-4.1-0.9c-1.5,0-2.8,0.3-4.1,0.9l0.2,0.4l-0.2-0.4
		c-1.3,0.5-2.4,1.3-3.4,2.3c-0.9,0.9-1.7,2.1-2.3,3.4l0,0l0,0c-0.5,1.3-0.8,2.6-0.8,4.1L86.8,46L86.8,46z">
  </path>
  <path class="st0" d="M127.9,35.8v4h-12.3c-0.6,0-1.1,0.2-1.4,0.6c-0.4,0.4-0.6,0.9-0.6,1.4c0,0.6,0.2,1.1,0.6,1.5
		c0.4,0.4,0.9,0.6,1.4,0.6h8.1c0.8,0,1.6,0.2,2.4,0.5c0.8,0.3,1.4,0.7,1.9,1.3c0.6,0.5,1,1.2,1.3,1.9c0.3,0.7,0.5,1.5,0.5,2.4
		c0,0.8-0.2,1.6-0.5,2.4c-0.3,0.7-0.7,1.4-1.3,1.9c-0.5,0.5-1.2,1-1.9,1.3c-0.7,0.3-1.5,0.5-2.4,0.5h-12.2v-4h12.2
		c0.6,0,1.1-0.2,1.5-0.6c0.4-0.4,0.6-0.9,0.6-1.5c0-0.6-0.2-1.1-0.6-1.4c-0.4-0.4-0.9-0.6-1.5-0.6h-8.1c-0.8,0-1.6-0.2-2.4-0.5
		c-0.7-0.3-1.4-0.8-1.9-1.3c-0.5-0.6-1-1.2-1.3-1.9c-0.3-0.8-0.5-1.6-0.5-2.4c0-0.8,0.1-1.6,0.5-2.4c0.3-0.8,0.8-1.4,1.3-1.9
		c0.5-0.5,1.2-1,1.9-1.3c0.8-0.3,1.6-0.5,2.4-0.5L127.9,35.8L127.9,35.8z">
  </path>
  <path class="st0" d="M127.9,35.8h-0.5v3.6h-11.8c-0.7,0-1.3,0.2-1.8,0.7c-0.5,0.5-0.7,1.1-0.7,1.8c0,0.7,0.2,1.3,0.7,1.8l0,0l0,0
		c0.5,0.5,1.1,0.7,1.8,0.7h8.1c0.8,0,1.5,0.2,2.2,0.5l0,0l0,0c0.7,0.3,1.3,0.7,1.8,1.2l0,0l0,0c0.5,0.5,0.9,1.1,1.2,1.8l0,0l0,0
		c0.3,0.7,0.5,1.4,0.5,2.2c0,0.8-0.2,1.5-0.5,2.2l0,0l0,0c-0.3,0.7-0.7,1.3-1.2,1.8c-0.5,0.5-1.1,0.9-1.8,1.2l0.2,0.4l-0.2-0.4
		c-0.7,0.3-1.4,0.4-2.2,0.4H112v-3.1h11.8c0.7,0,1.3-0.2,1.8-0.7c0.5-0.5,0.7-1.1,0.7-1.8c0-0.7-0.2-1.3-0.7-1.8
		c-0.5-0.5-1.1-0.7-1.8-0.7h-8.1c-0.8,0-1.5-0.1-2.2-0.4l-0.2,0.4l0.2-0.4c-0.7-0.3-1.3-0.7-1.8-1.2l-0.3,0.3l0.3-0.3
		c-0.5-0.5-0.9-1.1-1.2-1.8l-0.4,0.2l0.4-0.2c-0.3-0.7-0.4-1.4-0.4-2.2c0-0.8,0.1-1.5,0.4-2.2l-0.4-0.2l0.4,0.2
		c0.3-0.7,0.7-1.3,1.2-1.8c0.5-0.5,1.1-0.9,1.8-1.2l0,0c0.7-0.3,1.4-0.5,2.2-0.5h12.3L127.9,35.8l-0.5,0L127.9,35.8l0-0.5h-12.3
		c-0.9,0-1.8,0.2-2.6,0.5l0.2,0.4l-0.2-0.4c-0.8,0.3-1.5,0.8-2,1.4c-0.6,0.6-1.1,1.3-1.4,2.1l0,0l0,0c-0.3,0.8-0.5,1.6-0.5,2.5
		c0,0.9,0.2,1.8,0.5,2.6l0,0l0,0c0.4,0.8,0.8,1.5,1.4,2.1l0,0l0,0c0.6,0.6,1.3,1.1,2,1.4l0,0l0,0c0.8,0.3,1.7,0.5,2.6,0.5h8.1
		c0.5,0,0.9,0.2,1.2,0.5c0.3,0.3,0.4,0.7,0.5,1.1c0,0.5-0.1,0.9-0.5,1.2c-0.3,0.3-0.7,0.4-1.2,0.5h-12.7v5h12.7
		c0.9,0,1.7-0.2,2.5-0.5l0,0l0,0c0.8-0.4,1.5-0.8,2.1-1.4c0.6-0.6,1.1-1.3,1.4-2.1l-0.4-0.2l0.4,0.2c0.4-0.8,0.5-1.7,0.5-2.6
		s-0.2-1.8-0.5-2.5l-0.4,0.2l0.4-0.2c-0.3-0.8-0.8-1.5-1.4-2.1l-0.3,0.3l0.3-0.3c-0.6-0.6-1.3-1-2.1-1.4l-0.2,0.4l0.2-0.4
		c-0.8-0.4-1.6-0.5-2.5-0.5h-8.1c-0.5,0-0.8-0.1-1.1-0.5l-0.3,0.3l0.3-0.3c-0.3-0.4-0.5-0.7-0.5-1.2c0-0.5,0.1-0.8,0.5-1.1
		c0.3-0.3,0.7-0.4,1.1-0.5h12.7v-5h-0.5L127.9,35.8L127.9,35.8z">
  </path>
  <path class="st0" d="M152.6,35.8V46c0,1.4-0.3,2.7-0.8,3.9c-0.5,1.2-1.2,2.3-2.2,3.3c-0.9,0.9-2,1.7-3.3,2.2
		c-1.2,0.5-2.5,0.8-3.9,0.8c-1.4,0-2.7-0.3-3.9-0.8c-1.2-0.5-2.3-1.3-3.3-2.2c-0.9-0.9-1.6-2-2.2-3.3c-0.5-1.2-0.8-2.6-0.8-3.9V35.8
		h4V46c0,0.8,0.2,1.6,0.5,2.4c0.3,0.8,0.8,1.4,1.3,2c0.6,0.5,1.2,1,1.9,1.3c0.8,0.3,1.6,0.5,2.4,0.5c0.8,0,1.6-0.2,2.4-0.5
		c0.8-0.3,1.4-0.8,1.9-1.3c0.6-0.6,1-1.2,1.3-2c0.3-0.8,0.5-1.6,0.5-2.4V35.8H152.6L152.6,35.8z">
  </path>
  <path class="st0" d="M152.6,35.8h-0.5V46c0,1.3-0.3,2.6-0.8,3.8l0,0l0,0c-0.5,1.2-1.2,2.2-2.1,3.1c-0.9,0.9-1.9,1.6-3.1,2.1
		l0.2,0.4l-0.2-0.4c-1.1,0.5-2.4,0.7-3.8,0.7c-1.3,0-2.6-0.2-3.8-0.7l-0.2,0.4l0.2-0.4c-1.2-0.5-2.2-1.2-3.1-2.1l-0.3,0.3l0.3-0.3
		c-0.9-0.9-1.6-1.9-2.1-3.1l-0.4,0.2l0.4-0.2c-0.5-1.2-0.7-2.4-0.7-3.8v-9.7h3.1V46c0,0.9,0.2,1.8,0.5,2.6l0,0l0,0
		c0.4,0.8,0.8,1.5,1.4,2.1l0,0l0,0c0.6,0.6,1.3,1,2.1,1.4l0,0l0,0c0.8,0.3,1.7,0.5,2.6,0.5c0.9,0,1.8-0.2,2.6-0.5l0,0l0,0
		c0.8-0.4,1.5-0.8,2.1-1.4c0.6-0.6,1.1-1.3,1.4-2.1l-0.4-0.2l0.4,0.2c0.4-0.8,0.5-1.7,0.5-2.6v-9.7h3.6L152.6,35.8l-0.5,0
		L152.6,35.8l0-0.5h-4.5V46c0,0.8-0.2,1.5-0.5,2.2l0,0l0,0c-0.3,0.7-0.7,1.3-1.2,1.8c-0.5,0.5-1.1,0.9-1.8,1.2l0.2,0.4l-0.2-0.4
		c-0.7,0.3-1.4,0.4-2.2,0.4c-0.8,0-1.5-0.1-2.2-0.4l-0.2,0.4l0.2-0.4c-0.7-0.3-1.3-0.7-1.8-1.2l-0.3,0.3l0.3-0.3
		c-0.5-0.5-0.9-1.2-1.2-1.9l-0.4,0.2l0.4-0.2c-0.3-0.7-0.4-1.4-0.4-2.2V35.4h-5V46c0,1.4,0.3,2.8,0.8,4.1l0,0l0,0
		c0.6,1.3,1.3,2.4,2.3,3.4l0,0l0,0c1,1,2.1,1.7,3.4,2.3l0,0l0,0c1.3,0.5,2.7,0.8,4.1,0.8c1.5,0,2.9-0.3,4.1-0.8l0,0
		c1.3-0.6,2.4-1.3,3.4-2.3c1-1,1.7-2.1,2.3-3.4l-0.4-0.2l0.4,0.2c0.6-1.3,0.9-2.7,0.9-4.1V35.4h-0.5L152.6,35.8L152.6,35.8z">
  </path>
  <path class="st0" d="M165.3,52.1c0.8,0,1.6-0.1,2.4-0.5c0.8-0.3,1.4-0.8,1.9-1.3c0.6-0.6,1-1.2,1.3-2c0.3-0.8,0.5-1.6,0.5-2.4v-6.1
		h-6.1c-0.8,0-1.6,0.2-2.4,0.5c-0.8,0.3-1.4,0.7-2,1.3c-0.5,0.5-1,1.2-1.3,1.9c-0.3,0.7-0.5,1.5-0.5,2.4c0,0.8,0.2,1.6,0.5,2.4
		c0.3,0.8,0.8,1.4,1.3,2c0.6,0.5,1.2,1,2,1.3C163.6,52,164.4,52.1,165.3,52.1 M175.4,27.7V46c0,1.4-0.3,2.7-0.8,3.9
		c-0.5,1.2-1.2,2.3-2.2,3.3c-0.9,0.9-2,1.7-3.2,2.2c-1.2,0.5-2.6,0.8-3.9,0.8c-1.4,0-2.7-0.3-3.9-0.8c-1.2-0.5-2.3-1.3-3.3-2.2
		c-0.9-0.9-1.7-2-2.2-3.3c-0.5-1.2-0.8-2.6-0.8-3.9c0-1.4,0.3-2.7,0.8-3.9c0.5-1.2,1.3-2.3,2.2-3.2c0.9-0.9,2-1.7,3.3-2.2
		c1.2-0.5,2.5-0.8,3.9-0.8h6.1v-8.1L175.4,27.7L175.4,27.7z">
  </path>
  <path class="st0" d="M165.3,52.1v0.5c0.9,0,1.7-0.2,2.5-0.5l0,0c0.8-0.4,1.5-0.8,2.1-1.4c0.6-0.6,1.1-1.3,1.4-2.1l-0.4-0.2l0.4,0.2
		c0.4-0.8,0.5-1.7,0.5-2.6v-6.6h-6.6c-0.9,0-1.8,0.2-2.6,0.5l0.2,0.4l-0.2-0.4c-0.8,0.3-1.5,0.8-2.1,1.4c-0.6,0.6-1.1,1.3-1.4,2.1
		l0,0c-0.3,0.8-0.5,1.6-0.5,2.5c0,0.9,0.2,1.8,0.5,2.6l0,0l0,0c0.4,0.8,0.8,1.5,1.4,2.1l0,0l0,0c0.6,0.6,1.3,1,2.1,1.4l0,0l0,0
		c0.8,0.3,1.7,0.5,2.6,0.5v-0.9c-0.8,0-1.5-0.1-2.2-0.4l-0.2,0.4l0.2-0.4c-0.7-0.3-1.3-0.7-1.9-1.2l-0.3,0.3l0.3-0.3
		c-0.5-0.5-0.9-1.2-1.2-1.9l-0.4,0.2l0.4-0.2c-0.3-0.7-0.4-1.4-0.4-2.2c0-0.8,0.1-1.5,0.4-2.2l-0.4-0.2l0.4,0.2
		c0.3-0.7,0.7-1.3,1.2-1.8c0.5-0.5,1.1-0.9,1.8-1.2l0,0l0,0c0.7-0.3,1.4-0.5,2.2-0.5h5.6V46c0,0.8-0.2,1.5-0.5,2.2l0,0l0,0
		c-0.3,0.7-0.7,1.3-1.2,1.8c-0.5,0.5-1.1,0.9-1.8,1.2l0.2,0.4l-0.2-0.4c-0.7,0.3-1.4,0.4-2.2,0.4L165.3,52.1L165.3,52.1z
		 M175.4,27.7H175V46c0,1.3-0.3,2.6-0.8,3.8l0,0c-0.5,1.2-1.2,2.2-2.1,3.1l0,0l0,0c-0.9,0.9-1.9,1.6-3.1,2.1l0.2,0.4l-0.2-0.4
		c-1.2,0.5-2.4,0.7-3.8,0.7c-1.3,0-2.6-0.2-3.8-0.7l-0.2,0.4l0.2-0.4c-1.2-0.5-2.2-1.2-3.1-2.1c-0.9-0.9-1.6-1.9-2.1-3.1l-0.4,0.2
		l0.4-0.2c-0.5-1.2-0.7-2.4-0.7-3.8c0-1.4,0.2-2.6,0.7-3.8l-0.4-0.2l0.4,0.2c0.5-1.2,1.2-2.2,2.1-3.1l0,0c0.9-0.9,1.9-1.6,3.1-2.1
		l0,0c1.2-0.5,2.4-0.8,3.8-0.8h6.6v-8.1h3.6V27.7l-0.5,0L175.4,27.7l0-0.5h-4.5v8.1h-5.6c-1.4,0-2.8,0.3-4.1,0.9l0.2,0.4l-0.2-0.4
		c-1.3,0.5-2.4,1.3-3.4,2.3l0.3,0.3l-0.3-0.3c-1,0.9-1.8,2.1-2.3,3.4l0,0l0,0c-0.5,1.3-0.8,2.6-0.8,4.1c0,1.4,0.3,2.8,0.8,4.1l0,0
		l0,0c0.6,1.3,1.3,2.4,2.3,3.4c1,1,2.1,1.7,3.4,2.3l0,0l0,0c1.3,0.5,2.7,0.8,4.1,0.8c1.4,0,2.8-0.3,4.1-0.8l0,0
		c1.3-0.6,2.4-1.3,3.4-2.3l-0.3-0.3l0.3,0.3c1-1,1.7-2.1,2.3-3.4l-0.4-0.2l0.4,0.2c0.6-1.3,0.9-2.7,0.9-4.1V27.2h-0.5L175.4,27.7
		L175.4,27.7z">
  </path>
 </g>
</svg>