<?xml version="1.0" encoding="UTF-8"?>
<svg id="Capa_2" data-name="Capa 2" xmlns="http://www.w3.org/2000/svg" viewBox="0 0 276.12 276.12">
  <defs>
    <style>
      .cls-1 {
        fill: #fff;
      }
    </style>
  </defs>
  <g id="Capa_1-2" data-name="Capa 1">
    <g>
      <path class="cls-1" d="M249.56,56.23l-.1-.07c1.95-3.24,3.04-6.97,3.04-11.03,0-11.86-9.61-21.48-21.48-21.48-4.16,0-7.96,1.14-11.25,3.2C196.91,10.04,168.61,0,138.06,0,61.81,0,0,61.81,0,138.06s61.81,138.06,138.06,138.06,138.06-61.81,138.06-138.06c0-30.61-9.7-58.94-26.56-81.83ZM231.03,33.22c6.49,0,11.74,5.25,11.74,11.73s-5.25,11.72-11.74,11.72-11.72-5.24-11.72-11.72,5.25-11.73,11.72-11.73ZM138,262.09c-68.51,0-124.05-55.54-124.05-124.04S69.49,14,138,14c27.24,0,52.46,8.8,72.92,23.69-.88,2.34-1.37,4.88-1.37,7.53,0,11.78,9.54,21.32,21.32,21.32,2.56,0,5.24-.54,7.51-1.36,14.84,20.45,23.67,45.66,23.67,72.87,0,68.51-55.54,124.04-124.04,124.04Z"/>
      <path class="cls-1" d="M70.5,207.61c.77-.76,1.63-1.34,2.58-1.71.98-.4,1.97-.59,2.97-.59s1.98.2,2.93.59c.98.37,1.85.94,2.62,1.71l1.08,1.09-2.16,2.19-1.12-1.08c-.46-.47-.99-.81-1.57-1.05-.58-.23-1.18-.35-1.78-.35s-1.2.11-1.78.35c-.58.23-1.11.58-1.57,1.05-.46.44-.81.95-1.05,1.53-.23.58-.35,1.18-.35,1.78s.11,1.2.35,1.78c.23.58.58,1.1,1.05,1.57.93.93,2.05,1.4,3.35,1.4.63,0,1.23-.12,1.82-.35.58-.23,1.09-.58,1.53-1.05l1.12-1.08,2.16,2.2-1.08,1.08c-.77.76-1.64,1.35-2.62,1.75-.95.37-1.93.56-2.93.56s-1.99-.19-2.97-.56c-.95-.4-1.81-.98-2.58-1.75-.76-.77-1.34-1.63-1.71-2.58-.37-.95-.56-1.93-.56-2.93s.18-2.01.56-2.96c.37-.96.94-1.82,1.71-2.59"/>
      <path class="cls-1" d="M89.56,209.84c-.93.93-1.4,2.05-1.4,3.35,0,.72.16,1.41.49,2.06.28-.28.7-.69,1.25-1.25.58-.59,1.19-1.19,1.82-1.81.65-.65,1.26-1.27,1.85-1.85.61-.58,1.07-1.03,1.4-1.36-.89-.44-1.83-.6-2.83-.45-.98.14-1.83.58-2.58,1.32M97.34,215.46l2.2,2.2-1.09,1.09c-.74.74-1.59,1.31-2.55,1.71-.95.39-1.95.59-3,.59s-2.04-.2-3-.59c-.96-.4-1.8-.97-2.54-1.71-.77-.77-1.34-1.63-1.71-2.58-.37-.98-.56-1.97-.56-2.97s.19-1.98.56-2.93c.37-.95.94-1.81,1.71-2.58.77-.77,1.63-1.34,2.58-1.71.98-.39,1.97-.59,2.97-.59s1.98.2,2.93.59c.98.37,1.85.94,2.62,1.71l1.09,1.08-8.69,8.69c.88.44,1.81.59,2.79.45,1-.16,1.87-.62,2.62-1.36l1.08-1.08Z"/>
      <path class="cls-1" d="M102.35,213.15c0-1.09.2-2.1.59-3.03.42-.95.98-1.78,1.68-2.48.72-.72,1.56-1.28,2.51-1.68.95-.41,1.97-.62,3.04-.62s2.1.21,3.04.62c.95.4,1.79.96,2.51,1.68.72.7,1.28,1.52,1.67,2.48.42.93.63,1.95.63,3.03v7.86h-3.11v-7.86c0-.65-.13-1.25-.38-1.81-.23-.58-.57-1.08-1.01-1.5-.42-.44-.92-.78-1.5-1.01-.58-.26-1.2-.38-1.85-.38s-1.27.12-1.85.38c-.56.23-1.06.57-1.5,1.01-.42.42-.76.92-1.01,1.5-.23.56-.35,1.17-.35,1.81v7.86h-3.11v-7.86Z"/>
      <path class="cls-1" d="M123.12,207.61c.77-.76,1.63-1.34,2.58-1.71.98-.4,1.97-.59,2.97-.59s1.98.2,2.93.59c.98.37,1.85.95,2.62,1.71l1.08,1.09-2.16,2.2-1.12-1.08c-.47-.46-.99-.81-1.57-1.05-.59-.23-1.17-.35-1.78-.35s-1.2.11-1.78.35c-.58.23-1.11.58-1.57,1.05-.46.44-.81.96-1.04,1.54-.23.58-.35,1.18-.35,1.78s.12,1.2.35,1.78c.23.58.58,1.1,1.04,1.57.93.93,2.05,1.4,3.35,1.4.63,0,1.23-.12,1.82-.35.58-.23,1.09-.58,1.53-1.05l1.12-1.08,2.16,2.2-1.08,1.08c-.77.76-1.64,1.35-2.62,1.75-.95.37-1.93.56-2.93.56s-1.99-.19-2.97-.56c-.95-.4-1.81-.98-2.58-1.75-.77-.77-1.34-1.63-1.71-2.58-.37-.95-.56-1.93-.56-2.93s.19-2.01.56-2.96c.37-.96.94-1.82,1.71-2.59"/>
      <path class="cls-1" d="M140.75,213.19c0,.65.12,1.27.35,1.85.26.58.59,1.09,1.01,1.53.44.42.95.76,1.53,1.01.58.23,1.2.35,1.85.35s1.27-.12,1.85-.35c.58-.25,1.08-.59,1.5-1.01.44-.44.78-.95,1.01-1.53.26-.58.38-1.2.38-1.85s-.13-1.25-.38-1.81c-.23-.58-.57-1.08-1.01-1.5-.42-.44-.92-.78-1.5-1.01-.58-.25-1.2-.38-1.85-.38s-1.27.13-1.85.38c-.58.23-1.09.57-1.53,1.01-.42.42-.76.92-1.01,1.5-.23.56-.35,1.16-.35,1.81M137.68,213.19c0-1.09.2-2.1.59-3.03.42-.96.98-1.78,1.67-2.48.72-.72,1.56-1.28,2.51-1.68.96-.42,1.97-.63,3.04-.63s2.11.21,3.04.63c.96.4,1.79.95,2.51,1.68.72.69,1.28,1.52,1.68,2.48.42.93.63,1.94.63,3.03s-.21,2.08-.63,3.04c-.4.96-.96,1.79-1.68,2.51-.72.72-1.56,1.29-2.51,1.71-.93.39-1.94.59-3.04.59s-2.08-.2-3.04-.59c-.95-.42-1.79-.99-2.51-1.71-.7-.72-1.26-1.56-1.67-2.51-.4-.95-.59-1.97-.59-3.04"/>
      <path class="cls-1" d="M169.65,205.3v3.11h-9.46c-.44,0-.81.15-1.11.45-.3.3-.46.68-.46,1.12s.15.83.46,1.15c.3.3.67.45,1.11.45h6.28c.66,0,1.26.13,1.82.39.58.23,1.08.56,1.5.98.44.41.78.92,1.01,1.5.26.55.38,1.16.38,1.81s-.13,1.27-.38,1.85c-.23.56-.57,1.06-1.01,1.5-.42.42-.92.76-1.5,1.02-.56.23-1.16.35-1.82.35h-9.42v-3.11h9.42c.47,0,.85-.15,1.16-.45.3-.31.45-.69.45-1.15s-.15-.81-.45-1.12c-.3-.3-.69-.45-1.16-.45h-6.28c-.65,0-1.27-.12-1.85-.35-.56-.25-1.05-.59-1.47-1.02-.42-.44-.76-.94-1.01-1.5-.23-.58-.35-1.2-.35-1.85s.12-1.25.35-1.81c.25-.58.59-1.08,1.01-1.5.42-.42.91-.75,1.47-.98.58-.25,1.2-.38,1.85-.38h9.46Z"/>
      <path class="cls-1" d="M189.62,205.3v7.82c0,1.07-.21,2.08-.63,3.04-.4.95-.95,1.79-1.68,2.51-.72.72-1.56,1.29-2.51,1.71-.93.39-1.94.59-3.03.59s-2.08-.2-3.04-.59c-.96-.42-1.79-.99-2.51-1.71-.69-.72-1.26-1.56-1.67-2.51-.4-.96-.59-1.97-.59-3.04v-7.82h3.11v7.82c0,.65.11,1.27.35,1.85.26.58.59,1.09,1.01,1.54.45.42.95.75,1.5,1.01.58.23,1.2.35,1.85.35s1.26-.12,1.85-.35c.58-.25,1.08-.59,1.5-1.01.45-.44.78-.95,1.02-1.54.25-.58.38-1.2.38-1.85v-7.82h3.11Z"/>
      <path class="cls-1" d="M199.57,217.87c.65,0,1.25-.12,1.82-.35.58-.25,1.08-.59,1.5-1.01.44-.44.78-.95,1.01-1.53.25-.58.38-1.2.38-1.85v-4.71h-4.71c-.65,0-1.27.12-1.85.38-.58.23-1.1.57-1.53,1.01-.42.42-.76.92-1.01,1.5-.24.56-.36,1.16-.36,1.81s.12,1.27.36,1.85c.26.58.59,1.09,1.01,1.53.44.42.95.76,1.53,1.01.58.23,1.19.35,1.85.35M207.39,199.02v14.1c0,1.07-.21,2.08-.62,3.04-.4.95-.96,1.79-1.68,2.51-.7.72-1.52,1.29-2.48,1.71-.95.4-1.97.59-3.03.59s-2.08-.2-3.04-.59c-.95-.42-1.79-.99-2.51-1.71-.72-.72-1.29-1.56-1.71-2.51-.4-.96-.59-1.97-.59-3.04s.2-2.1.59-3.03c.42-.96.99-1.78,1.71-2.48.72-.72,1.56-1.28,2.51-1.67.96-.42,1.97-.63,3.04-.63h4.71v-6.28h3.1Z"/>
      <polygon class="cls-1" points="249.9 93.76 222.68 165.13 207.03 165.09 217.29 141.82 198.8 93.8 214.42 93.8 224.5 124.77 225.06 124.76 234.39 93.77 249.9 93.76"/>
      <path class="cls-1" d="M196.4,129.9c.02,11.4-12.5,15.67-24.26,15.68-11.75,0-23.98-4.52-23.99-15.76h15.47c0,3.52,4.86,4.84,8.54,4.84,3.6,0,8.28-.96,8.28-4.36,0-4.28-5.82-4.9-14.95-7.27-9.49-2.49-16.24-6.63-16.25-15.57,0-11.34,11.05-15.23,22.88-15.25,11.69,0,22.38,3.87,22.39,15.21l-15.28.05c0-3.15-3.88-4.37-7.11-4.37-3.25.02-7.08.79-7.08,3.91.01,4.29,6.53,4.83,13.89,6.62,9.41,2.29,17.47,6.12,17.49,16.26"/>
      <path class="cls-1" d="M124.77,118.72c-.01-6.68-3.71-12.93-12.33-12.92-8.65.01-11.43,6.97-11.43,12.97.02,6.32,3.38,13.16,12.11,13.17,8.94-.03,11.65-7.21,11.65-13.22M139.46,143.66l-14.49.09.03-5.73h-.56c-2.41,4.87-7.25,7.55-14.75,7.57-12.72.03-23.73-10.41-23.75-26.85-.01-16.65,10.04-26.57,22.82-26.58,7.09-.01,12.95,2.92,15.55,7.28l.57-.02-.03-5.62h14.55s.06,49.86.06,49.86Z"/>
      <path class="cls-1" d="M62.33,113.4c-.2-2.91-2.08-9.15-10.48-9.15-7.53,0-9.98,6.23-10.29,9.15h20.77ZM77.83,118.38c0,1.98-.27,5.09-.27,5.09l-35.98.02c.35,5.82,4.72,9.98,10.85,9.96,4.46.02,7.33-1.65,8.74-4.73l15.61.02c-1.42,7.41-7.84,16.78-24.08,16.8-15.6.03-26.46-12.28-26.48-27.15,0-15.04,9.85-26.21,25.39-26.24,15.64,0,26.21,11.27,26.22,26.21"/>
      <path class="cls-1" d="M179.61,165.63c-39.69-5.35-79.58-5.66-141.4-1.25l.67-2.84c61.78-5.45,110.48-8.32,137.18-7.5,15.75.48,20.54,1.63,20.54,7.22,0,5.95-7.01,5.72-17,4.37"/>
    </g>
  </g>
</svg>