<?xml version="1.0" encoding="UTF-8"?><svg id="Capa_2" xmlns="http://www.w3.org/2000/svg" viewBox="0 0 158.74 47.05"><defs><style>.cls-1,.cls-2{fill:#fff;}.cls-2{fill-rule:evenodd;}</style></defs><g id="Layer_1"><g><g><path class="cls-1" d="M46.82,11.63c5.96,0,9.44,3.59,9.44,9.06s-3.47,8.98-9.44,8.98-9.47-3.51-9.47-8.98,3.4-9.06,9.47-9.06Zm0,14.3c3.17,0,5.02-2.15,5.02-5.25s-1.85-5.36-5.02-5.36-5.1,2.26-5.1,5.36,1.89,5.25,5.1,5.25Z"/><path class="cls-1" d="M73.4,29.37h-.98c-1.36,0-1.62-.26-1.62-1.62v-8.38c0-2.26-.87-4.04-3.59-4.04s-3.81,1.62-3.89,4.34v8.08c0,1.36-.26,1.62-1.62,1.62h-.98c-1.36,0-1.62-.26-1.62-1.62V13.32c0-1.09,0-1.43,.83-1.43,1.85,0,2.87,.6,3.25,1.96,1.06-1.28,2.79-2.23,5.44-2.23,4.49,0,6.42,2.76,6.42,7.36v8.76c0,1.36-.26,1.62-1.62,1.62Z"/><path class="cls-1" d="M82.68,8.23v3.66h4.13c1,0,1.08,.08,1.08,1.12h0c0,1.4-1.14,2.54-2.54,2.54h-2.67v7.17c0,2.76,1.47,3.13,2.34,3.13s1.66-.19,2.49-.45c.6-.15,.87-.04,.87,.98,0,.57-.11,1.09-.34,1.55-.57,1.06-1.92,1.7-4.34,1.7-4,0-5.25-2.53-5.25-6.79V11.89c.23-3.55,1.62-5.1,3.4-5.1,.83,0,.83,.34,.83,1.43Z"/><path class="cls-1" d="M96.92,19.14c1.62,0,3.13,.15,4.6,.3v-.87c0-2.11-1.06-3.4-4.19-3.4-1.74,0-3.09,.15-4.72,.49-1.28,.26-1.43,.19-1.43-.6,0-1.74,.72-2.45,1.89-2.83,1.21-.42,3.02-.6,4.76-.6,4.91,0,7.93,2.26,7.93,6.27v10.19c0,1.09,0,1.43-.79,1.43-1.74,0-2.76-.53-3.21-1.7-1.02,.83-2.68,1.77-5.74,1.77-4.19,0-6.19-1.92-6.19-5.44s2.11-5.02,7.1-5.02Zm4.6,5.81v-2.34c-1.21-.19-2.49-.26-3.62-.26-2.45,0-3.85,.3-3.85,1.85,0,1.43,1.09,2.08,3.17,2.08s3.32-.57,4.3-1.32Z"/><path class="cls-1" d="M123.55,29.37h-.98c-1.36,0-1.62-.26-1.62-1.62v-8.38c0-2.26-.87-4.04-3.59-4.04s-3.81,1.62-3.89,4.34v8.08c0,1.36-.26,1.62-1.62,1.62h-.98c-1.36,0-1.62-.26-1.62-1.62V13.32c0-1.09,0-1.43,.83-1.43,1.85,0,2.87,.6,3.25,1.96,1.06-1.28,2.79-2.23,5.44-2.23,4.49,0,6.42,2.76,6.42,7.36v8.76c0,1.36-.26,1.62-1.62,1.62Z"/><path class="cls-1" d="M134.75,19.14c1.62,0,3.13,.15,4.6,.3v-.87c0-2.11-1.06-3.4-4.19-3.4-1.74,0-3.09,.15-4.72,.49-1.28,.26-1.43,.19-1.43-.6,0-1.74,.72-2.45,1.89-2.83,1.21-.42,3.02-.6,4.76-.6,4.91,0,7.93,2.26,7.93,6.27v10.19c0,1.09,0,1.43-.79,1.43-1.74,0-2.76-.53-3.21-1.7-1.02,.83-2.68,1.77-5.74,1.77-4.19,0-6.19-1.92-6.19-5.44s2.11-5.02,7.1-5.02Zm4.6,5.81v-2.34c-1.21-.19-2.49-.26-3.62-.26-2.45,0-3.85,.3-3.85,1.85,0,1.43,1.09,2.08,3.17,2.08s3.32-.57,4.3-1.32Z"/><path class="cls-1" d="M151.3,21.48v6.27c0,1.36-.26,1.62-1.62,1.62h-.98c-1.36,0-1.62-.26-1.62-1.62V13.32c0-1.09,0-1.43,.83-1.43,2.04,0,3.06,.75,3.32,2.42,1.02-2.19,2.57-2.91,4.45-2.91,2.38,0,3.06,1.13,3.06,3.09,0,.83-.08,.98-.91,.87-.94-.11-1.36-.23-1.96-.23-3.13,0-4.49,2.38-4.57,6.34Z"/><path class="cls-1" d="M39.06,7.4c0,1.06-.3,1.06-1.13,.75-.68-.26-1.49-.48-2.26-.51-1.03-.04-1.75,.22-2.25,.6-.56,.42-.94,1.17-.94,2.41v1.25h3.85c1.04,0,1.12,.09,1.12,1.12h0c0,1.4-1.14,2.54-2.54,2.54h-2.42v12.19c0,.9-.73,1.62-1.62,1.62h-.94c-1.4,0-1.66-.26-1.66-1.62V10.34c0-3.36,1.77-6.11,5.81-6.11,1.31,0,2.46,.1,3.46,.59s1.54,1.32,1.54,2.58Z"/></g><path class="cls-2" d="M1.79,10.85C5.86,2.53,15.21-1.41,23.85,.46c.2,.04,.23,.31,.05,.39-9.46,4.69-5.72,16.06-9.19,24.1-1.6,3.7-4.65,6.86-7.98,8.62-.13,.07-.29-.02-.31-.17-1.08-12.92,.85-19.82,6.42-26.6,.08-.1-.05-.23-.15-.15C6.45,11.55,3.21,19.78,4.53,30.83c.02,.2-.22,.32-.36,.17C-.75,25.68-1.01,16.57,1.79,10.85Z"/><g><path class="cls-1" d="M44.16,46.06c-.66-.67-.98-1.48-.98-2.46s.32-1.81,.98-2.46c.66-.67,1.48-1,2.48-1,1.21,0,2.29,.61,2.86,1.57l-1.13,.66c-.33-.6-.97-.95-1.73-.95-.65,0-1.17,.2-1.57,.61-.39,.41-.59,.93-.59,1.58s.2,1.16,.59,1.57c.4,.41,.92,.61,1.57,.61,.76,0,1.42-.36,1.73-.94l1.13,.66c-.57,.96-1.64,1.57-2.86,1.57-1,0-1.82-.33-2.48-1Z"/><path class="cls-1" d="M52.19,45.67h2.8v1.25h-4.11v-6.65h4.07v1.25h-2.76v1.42h2.52v1.24h-2.52v1.49Z"/><path class="cls-1" d="M60.47,40.27h1.31v6.65h-1l-2.85-4.07v4.07h-1.31v-6.65h1l2.85,4.06v-4.06Z"/><path class="cls-1" d="M67.88,40.27v1.25h-1.8v5.4h-1.31v-5.4h-1.79v-1.25h4.89Z"/><path class="cls-1" d="M72.72,46.92l-1.34-2.31h-1v2.31h-1.31v-6.65h2.66c.62,0,1.14,.22,1.57,.65,.43,.43,.65,.95,.65,1.56,0,.83-.51,1.59-1.28,1.94l1.47,2.51h-1.42Zm-2.34-5.42v1.97h1.35c.49,0,.9-.45,.9-.99s-.41-.98-.9-.98h-1.35Z"/><path class="cls-1" d="M78.53,47.05c-.96,0-1.78-.33-2.45-1-.66-.67-1-1.49-1-2.46s.33-1.79,1-2.45c.67-.67,1.49-1.01,2.45-1.01s1.78,.33,2.45,1.01c.67,.67,1.01,1.48,1.01,2.45s-.33,1.79-1.01,2.46c-.67,.67-1.49,1-2.45,1Zm0-1.28c.61,0,1.12-.2,1.53-.61,.41-.41,.62-.93,.62-1.57s-.21-1.16-.62-1.57c-.41-.41-.92-.62-1.53-.62s-1.12,.21-1.53,.62c-.41,.41-.62,.93-.62,1.57s.21,1.16,.62,1.57c.41,.41,.92,.61,1.53,.61Z"/><path class="cls-1" d="M87.29,46.06c-.66-.67-.98-1.48-.98-2.46s.32-1.81,.98-2.46c.66-.67,1.48-1,2.48-1,1.21,0,2.29,.61,2.86,1.57l-1.13,.66c-.33-.6-.97-.95-1.73-.95-.65,0-1.17,.2-1.57,.61-.39,.41-.59,.93-.59,1.58s.2,1.16,.59,1.57c.4,.41,.92,.61,1.57,.61,.76,0,1.42-.36,1.73-.94l1.13,.66c-.57,.96-1.64,1.57-2.86,1.57-1,0-1.82-.33-2.48-1Z"/><path class="cls-1" d="M97.01,47.05c-.96,0-1.78-.33-2.45-1-.66-.67-1-1.49-1-2.46s.33-1.79,1-2.45c.67-.67,1.49-1.01,2.45-1.01s1.78,.33,2.45,1.01c.67,.67,1.01,1.48,1.01,2.45s-.33,1.79-1.01,2.46c-.67,.67-1.49,1-2.45,1Zm0-1.28c.61,0,1.12-.2,1.53-.61,.41-.41,.62-.93,.62-1.57s-.21-1.16-.62-1.57c-.41-.41-.92-.62-1.53-.62s-1.12,.21-1.53,.62c-.41,.41-.62,.93-.62,1.57s.21,1.16,.62,1.57c.41,.41,.92,.61,1.53,.61Z"/><path class="cls-1" d="M108.49,40.27v6.65h-1.3v-4.31l-1.87,3.09h-.15l-1.87-3.08v4.3h-1.31v-6.65h1.35l1.91,3.14,1.9-3.14h1.35Z"/><path class="cls-1" d="M111.67,45.67h2.8v1.25h-4.11v-6.65h4.07v1.25h-2.76v1.42h2.52v1.24h-2.52v1.49Z"/><path class="cls-1" d="M119.75,46.92l-1.34-2.31h-1v2.31h-1.31v-6.65h2.66c.62,0,1.14,.22,1.57,.65,.43,.43,.65,.95,.65,1.56,0,.83-.51,1.59-1.28,1.94l1.47,2.51h-1.42Zm-2.34-5.42v1.97h1.35c.49,0,.9-.45,.9-.99s-.41-.98-.9-.98h-1.35Z"/><path class="cls-1" d="M123.09,46.06c-.66-.67-.98-1.48-.98-2.46s.32-1.81,.98-2.46c.66-.67,1.48-1,2.48-1,1.21,0,2.29,.61,2.86,1.57l-1.13,.66c-.33-.6-.97-.95-1.73-.95-.65,0-1.17,.2-1.57,.61-.39,.41-.59,.93-.59,1.58s.2,1.16,.59,1.57c.4,.41,.92,.61,1.57,.61,.76,0,1.42-.36,1.73-.94l1.13,.66c-.57,.96-1.64,1.57-2.86,1.57-1,0-1.82-.33-2.48-1Z"/><path class="cls-1" d="M129.83,40.27h1.31v6.65h-1.31v-6.65Z"/><path class="cls-1" d="M137.15,46.92l-.4-1.2h-2.65l-.4,1.2h-1.42l2.33-6.65h1.62l2.34,6.65h-1.43Zm-2.63-2.42h1.82l-.91-2.72-.91,2.72Z"/><path class="cls-1" d="M141.04,45.67h2.54v1.25h-3.85v-6.65h1.31v5.4Z"/></g></g></g></svg>