<?xml version="1.0" encoding="UTF-8"?>
<svg id="Capa_2" data-name="Capa 2" xmlns="http://www.w3.org/2000/svg" viewBox="0 0 340.65 370.99">
  <defs>
    <style>
      .cls-1 {
        fill: #2dc0e2;
      }
    </style>
  </defs>
  <g id="Espacio">
    <path class="cls-1" d="M321.29,250.04l-30.23-62.51c-.69-1.43-.32-3.14.9-4.16,6.02-5.04,11.6-9.8,16.64-15.96,20.69-23.85,25.27-57.02,11.98-85.83C299.9,36.72,246.4,7.3,198.74.98c-11.27-1.5-21.88-.94-33.21-.5-1.86.07-3.33,1.6-3.33,3.46l.05,36.7c0,1.92,1.56,3.46,3.48,3.46,8.96-.02,17.42,1.01,26.07,3.15,2.13.52,4.2-1.03,4.29-3.22l.23-5.76c.08-2.05,1.93-3.59,3.96-3.29,38.87,5.72,88.92,34.26,94.23,75.63,4.73,36.82-38.59,61.56-71.37,67.06-3.13.53-3.94,4.66-1.25,6.34,9.15,5.73,17.22,12.24,24.75,19.79.85.85,2.08,1.19,3.25.92,2.7-.62,4.97-1.73,7.75-2.78,1.68-.63,3.57.14,4.33,1.77l36.79,77.78c.6,1.26.38,2.75-.55,3.79-22.17,24.81-50.72,41.59-83.04,48.5-1.6.34-2.75,1.76-2.75,3.4l.07,27.85c0,2.15,1.95,3.78,4.07,3.4,49.81-8.87,95.72-39.78,123.4-77.55.77-1.06.89-2.46.29-3.62l-18.98-37.23ZM196.05,163.41l.21-62.65c0-2.83,3.23-4.46,5.52-2.78,12.67,9.31,21.46,22.58,25.38,37.9.48,1.89,2.43,3.01,4.31,2.47l26.27-7.56c1.84-.53,2.9-2.45,2.37-4.28-4.43-15.27-11.59-28.68-21.9-40.77-20.83-24.4-51.92-35.94-83.7-32.21-1.75.21-3.06,1.69-3.06,3.45l.09,26.63c0,2.1,1.87,3.72,3.95,3.42,1.05-.15,2.05-.31,3.04-.37,1.99-.13,3.67,1.45,3.68,3.45l.19,60.23c0,1.32.76,2.52,1.94,3.1l26.74,13.09c2.3,1.12,4.98-.54,4.98-3.1ZM142.54,310.18v-51.2M142.74,272.6l-.08-71.51c0-1.27-.7-2.44-1.82-3.04l-26.75-14.41c-2.3-1.24-5.09.41-5.1,3.02l-.36,50.92c-.02,3.37-4.37,4.73-6.3,1.96-7.42-10.64-12.5-22.18-16.09-34.54-.54-1.87-2.53-2.93-4.39-2.33l-25.26,8.14c-1.75.56-2.76,2.4-2.29,4.18,11.05,41.72,43,78.2,83.27,93.44,2.4.91,4.96-.88,4.96-3.44v-46l-.1,48.54.3-34.93ZM250.09,223.29c-19.55-36.75-88.98-55.8-127.29-84.71-1.7-1.29-3.31-2.7-4.73-4.24-3.35-3.1-12.22-12.12-12.3-20.96-.02-2.07,1.62-3.84,3.69-3.88s3.85,1.66,3.85,3.77c0,5.09,6.39,12.52,10.58,16.17l13.41,8.49c2.31,1.46,5.31-.2,5.31-2.93V6.26c-.01-2.22-2.08-3.87-4.25-3.38C50.49,23.07-4.86,105.03.34,193.82c6.31,100.43,91.05,180.58,192.37,177.06,1.87-.06,3.35-1.58,3.35-3.45l.15-49.45c0-.52.12-1.02.34-1.47v-39.03c-.06-.24-.09-.5-.09-.76l-.44-46.81c-.01-1.18-.62-2.26-1.61-2.9-8.83-5.61-17.69-10.48-27.05-15.18-2.3-1.15-5.01.52-5.01,3.1l-.03,115.47c0,2.19-2.01,3.82-4.15,3.39-42.14-8.42-77.6-33.89-100-70.05-29.22-47.15-31.47-105.74-5.04-154.67,11.87-22.58,28.92-41.42,50.48-54.79,2.25-1.39,5.17.17,5.27,2.81.15,3.79.08,7.33-.17,10.97-.07,1.05-.62,2-1.48,2.6-12.6,8.8-22.18,20.59-26.42,35.05-10.46,35.69,14.76,58.81,43.56,73.87l57.92,30.29c19.58,10.24,52.2,27.97,37.67,54.01-3.46,6.2-8.59,11.21-15.23,14.49-1.77.88-2.89,2.68-2.89,4.65v24.01c0,3.54,3.45,6.03,6.82,4.94,9.19-2.99,17.57-7.29,25.13-13.53,22.24-18.41,30.02-49.39,16.32-75.16Z"/>
  </g>
</svg>